<mxfile host="app.diagrams.net" modified="2024-05-01T18:44:15.456Z" agent="Mozilla/5.0 (Windows NT 10.0; Win64; x64) AppleWebKit/537.36 (KHTML, like Gecko) Chrome/121.0.0.0 Safari/537.36 OPR/107.0.0.0" version="24.2.5" etag="guiSJQ6aQHKWMwJu4cW4" type="github">
  <diagram name="PÃ¡gina-1" id="fxvHru7ZiYC3oTi-Vb24">
    <mxGraphModel>
      <root>
        <mxCell id="0" />
        <mxCell id="1" parent="0" />
      </root>
    </mxGraphModel>
  </diagram>
</mxfile>
